name D:\PhD\Datasets\SharingData_IBEC_VALDUCE\HM_Comp_0001.mot
datacolumns 46
datarows 6
range 7.51000000 7.56000000
endheader
                time	         pelvis_tilt	     pelvis_rotation	           pelvis_tx	           pelvis_ty	           pelvis_tz	       hip_flexion_r	     hip_adduction_r	      hip_rotation_r	        knee_angle_r	       ankle_angle_r	    subtalar_angle_r	         mtp_angle_r	       hip_flexion_l	     hip_adduction_l	      hip_rotation_l	        knee_angle_l	       ankle_angle_l	    subtalar_angle_l	         mtp_angle_l	    lumbar_extension	      lumbar_bending	     lumbar_rotation	          arm_flex_r	           arm_add_r	           arm_rot_r	        elbow_flex_r	           pro_sup_r	        wrist_flex_r	         wrist_dev_r	          arm_flex_l	           arm_add_l	           arm_rot_l	        elbow_flex_l	           pro_sup_l	        wrist_flex_l	         wrist_dev_l	          end_eff_tx	          end_eff_ty	          end_eff_tz	             goal_tx	             goal_ty	             goal_tz	            elbow_tx	            elbow_ty	            elbow_tz	
          7.51000000	          0.00000000	          0.00000000	        325.22261932	        508.04511586	        377.67851526	          0.00000000	          0.00000000	          0.00000000	          0.00000000	          0.00000000	          0.00000000	          0.00000000	          0.00000000	          0.00000000	          0.00000000	          0.00000000	          0.00000000	          0.00000000	          0.00000000	         -2.04215097	          7.24193430	         -4.72280550	         -4.93866920	        -39.05688858	          6.19483042	         87.74525452	         88.89138031	          0.00000000	          0.00000000	          0.00000000	          0.00000000	          0.00000000	          0.00000000	          0.00000000	          0.00000000	          0.00000000	        569.51336423	        248.62584807	        595.21953767	        587.38602647	        254.02648204	        554.29897302	        168.12579566	        298.47714887	        695.55851632	
          7.52000000	          0.00000000	          0.00000000	        325.26565071	        507.99508411	        377.66146247	          0.00000000	          0.00000000	          0.00000000	          0.00000000	          0.00000000	          0.00000000	          0.00000000	          0.00000000	          0.00000000	          0.00000000	          0.00000000	          0.00000000	          0.00000000	          0.00000000	         -2.01808119	          7.23453474	         -4.72124529	         -4.98948336	        -39.01601791	          6.20920229	         87.75096130	         88.85388947	          0.00000000	          0.00000000	          0.00000000	          0.00000000	          0.00000000	          0.00000000	          0.00000000	          0.00000000	          0.00000000	        569.56509740	        248.56062752	        595.22136628	        587.44788375	        253.90889379	        554.30121868	        168.18986697	        298.41647732	        695.53821040	
          7.53000000	          0.00000000	          0.00000000	        325.30574924	        507.96366486	        377.64813227	          0.00000000	          0.00000000	          0.00000000	          0.00000000	          0.00000000	          0.00000000	          0.00000000	          0.00000000	          0.00000000	          0.00000000	          0.00000000	          0.00000000	          0.00000000	          0.00000000	         -2.05194306	          7.23800516	         -4.70651197	         -4.96420097	        -39.00125504	          6.17881536	         87.72879791	         88.79154205	          0.00000000	          0.00000000	          0.00000000	          0.00000000	          0.00000000	          0.00000000	          0.00000000	          0.00000000	          0.00000000	        569.62331479	        248.53397255	        595.26155419	        587.48146933	        253.87930698	        554.32092135	        168.23969803	        298.40154446	        695.51050280	
          7.54000000	          0.00000000	          0.00000000	        325.33323795	        507.90547328	        377.63693761	          0.00000000	          0.00000000	          0.00000000	          0.00000000	          0.00000000	          0.00000000	          0.00000000	          0.00000000	          0.00000000	          0.00000000	          0.00000000	          0.00000000	          0.00000000	          0.00000000	         -2.05639219	          7.24490643	         -4.71475363	         -4.96182537	        -39.02071381	          6.18695354	         87.74691010	         88.81531525	          0.00000000	          0.00000000	          0.00000000	          0.00000000	          0.00000000	          0.00000000	          0.00000000	          0.00000000	          0.00000000	        569.68396413	        248.48718190	        595.26276868	        587.55195270	        253.94496793	        554.28642382	        168.26473736	        298.39931014	        695.49163498	
          7.55000000	          0.00000000	          0.00000000	        325.37046063	        507.87676113	        377.62333738	          0.00000000	          0.00000000	          0.00000000	          0.00000000	          0.00000000	          0.00000000	          0.00000000	          0.00000000	          0.00000000	          0.00000000	          0.00000000	          0.00000000	          0.00000000	          0.00000000	         -2.05284452	          7.22864723	         -4.71559811	         -4.96332884	        -39.00640106	          6.18550825	         87.74741364	         88.81539917	          0.00000000	          0.00000000	          0.00000000	          0.00000000	          0.00000000	          0.00000000	          0.00000000	          0.00000000	          0.00000000	        569.69169554	        248.49219371	        595.22531677	        587.57497220	        253.93313554	        554.27442593	        168.30271794	        298.36908183	        695.45416887	
          7.56000000	          0.00000000	          0.00000000	        325.38679915	        507.83814200	        377.58882524	          0.00000000	          0.00000000	          0.00000000	          0.00000000	          0.00000000	          0.00000000	          0.00000000	          0.00000000	          0.00000000	          0.00000000	          0.00000000	          0.00000000	          0.00000000	          0.00000000	         -2.10522556	          7.24004936	         -4.68945789	         -4.92338371	        -39.00161743	          6.16304779	         87.74071503	         88.84383392	          0.00000000	          0.00000000	          0.00000000	          0.00000000	          0.00000000	          0.00000000	          0.00000000	          0.00000000	          0.00000000	        569.72935192	        248.44106156	        595.20420177	        587.66521824	        253.98539340	        554.27113497	        168.33821899	        298.33986422	        695.43654371	
